<svg id="SvgjsSvg1001" width="288" height="288" xmlns="http://www.w3.org/2000/svg" version="1.1" xmlns:xlink="http://www.w3.org/1999/xlink" xmlns:svgjs="http://svgjs.com/svgjs"><defs id="SvgjsDefs1002"></defs><g id="SvgjsG1008" transform="matrix(0.9167,0,0,0.9167,11.995199682235722,11.995200000000011)"><svg xmlns="http://www.w3.org/2000/svg" width="288" height="288" enable-background="new 0 0 64 64" viewBox="0 0 64 64"><path d="M56.521,10.182c0-1.939-1.578-3.518-3.518-3.518H42.3V3.008C42.3,1.35,41.048,0,39.509,0h-15.02
		C22.952,0,21.7,1.35,21.7,3.008v3.656H10.997c-1.939,0-3.518,1.578-3.518,3.518c0,1.768,1.316,3.221,3.018,3.465l5.188,45.877
		C15.974,62.074,18.128,64,20.698,64h22.604c2.568,0,4.725-1.926,5.012-4.477l5.189-45.877
		C55.204,13.402,56.521,11.949,56.521,10.182z M23.64,3.008c0-0.578,0.389-1.068,0.85-1.068h15.02c0.461,0,0.852,0.49,0.852,1.068
		v3.656H23.64V3.008z M46.386,59.305c-0.176,1.57-1.504,2.756-3.084,2.756H20.698c-1.582,0-2.908-1.186-3.086-2.756l-5.156-45.607
		h39.088L46.386,59.305z M53.003,11.758H10.997c-0.871,0-1.578-0.707-1.578-1.576c0-0.871,0.707-1.578,1.578-1.578h42.006
		c0.869,0,1.578,0.707,1.578,1.578C54.581,11.051,53.872,11.758,53.003,11.758z" fill="#000000" class="color000 svgShape"></path><path d="M43.841 18.469c-.549-.049-1.002.35-1.049.883l-3.184 36.846c-.047.533.35 1.004.883 1.051.029.002.057.002.084.002.498 0 .922-.379.965-.885l3.184-36.846C44.771 18.986 44.376 18.516 43.841 18.469zM20.157 18.469c-.533.047-.928.518-.881 1.051l3.184 36.846c.043.506.467.885.965.885.027 0 .055 0 .084-.002.533-.047.928-.518.883-1.051l-3.184-36.846C21.161 18.818 20.694 18.42 20.157 18.469zM31.999 18.465c-.535 0-.969.436-.969.971v36.846c0 .535.434.969.969.969.537 0 .971-.434.971-.969V19.436C32.97 18.9 32.536 18.465 31.999 18.465z" fill="#000000" class="color000 svgShape"></path></svg></g></svg>